<?xml version="1.0" standalone="no"?><!DOCTYPE svg PUBLIC "-//W3C//DTD SVG 1.1//EN" "http://www.w3.org/Graphics/SVG/1.1/DTD/svg11.dtd"><svg t="1670290293039" class="icon" viewBox="0 0 1024 1024" version="1.1" xmlns="http://www.w3.org/2000/svg" p-id="8653" xmlns:xlink="http://www.w3.org/1999/xlink" width="200" height="200"><path d="M630.9 780.3s264.5 0 271.7-94.6c7.3-94.6-65.5-46.1-65.5-46.1-77.6 77.6-218.4 82.5-218.4 82.5l12.2 58.2z" fill="#EDCF99" p-id="8654"></path><path d="M630.9 784.6h-3.5L613.5 718l5.1-0.2c0.3 0 35.4-1.3 79.4-12.1 73.1-17.8 114.4-47.5 136.1-69.2l0.3-0.3 0.4-0.2c1.3-0.9 33.1-21.7 54.7-9.1 14 8.2 19.9 28.1 17.5 59.1-1.8 23.2-17.9 42.7-47.8 58.2-23.2 12-54.9 21.6-94.3 28.5-66.8 11.8-133.4 11.9-134 11.9z m-7-58.5l10.4 49.9c14.5-0.2 71.8-1.6 129-11.7 59.6-10.5 131.4-32.8 135-78.9 2.1-27.1-2.5-44.7-13.3-51-8.7-5.1-20.4-2.5-28.8 0.5-8.4 3-15 7.1-16.5 8.1-40.8 40.6-98.6 61.1-140 71.2-34.9 8.5-64.3 11.1-75.8 11.9z" fill="#A94E23" p-id="8655"></path><path d="M398.5 780.3s-264.5 0-271.7-94.6 65.5-46.1 65.5-46.1c77.6 77.6 218.4 82.5 218.4 82.5l-12.2 58.2z" fill="#EDCF99" p-id="8656"></path><path d="M402 784.6h-3.5c-0.7 0-67.3-0.1-133.9-11.9-39.3-6.9-71.1-16.5-94.3-28.5-30-15.4-46.1-35-47.8-58.2-2.4-31 3.5-50.9 17.5-59.1 21.6-12.6 53.3 8.2 54.7 9.1l0.4 0.2 0.3 0.3c21.7 21.7 63 51.4 136.1 69.2 44 10.7 79 12 79.4 12.1l5.1 0.2-14 66.6zM156.2 631.4c-4.2 0-8.3 0.8-11.9 2.9-10.8 6.3-15.3 24-13.3 51 3.5 46.1 75.4 68.4 135 78.9 57.3 10.1 114.6 11.5 129 11.7l10.4-49.9c-11.4-0.8-40.9-3.5-75.9-12-41.4-10.1-99.2-30.6-140-71.2-2.4-1.4-18.7-11.4-33.3-11.4z" fill="#A94E23" p-id="8657"></path><path d="M385.6 665.2s-85.7 216.5-58.4 308.2l354.3 1.5s3.7-231-66.5-326.3l-229.4 16.6z" fill="#EDCF99" p-id="8658"></path><path d="M685.8 979.2h-4.2l-357.5-1.5-0.9-3c-11.6-38.8-5.2-103.1 18.9-190.9 17.9-65.1 39.4-119.6 39.6-120.2l1-2.5 234.4-17 1.4 1.9c29.6 40.1 49.9 107.7 60.4 201 7.8 69.1 6.9 127.4 6.9 128v4.2z m-355.3-10l346.8 1.4c0-14.5-0.4-64.8-6.9-122.8-10-88.8-29.9-156.1-57.4-194.8l-224.3 16.3c-9.3 24-80.7 214.3-58.2 299.9z" fill="#A94E23" p-id="8659"></path><path d="M179.4 741l-69.5 10.7c-13.2 2-25.6-7.1-27.7-20.3l-19.6-128c-2-13.2 7.1-25.6 20.3-27.7l69.5-10.7c13.2-2 25.6 7.1 27.7 20.3l19.6 128c2 13.2-7.1 25.6-20.3 27.7z" fill="#D55542" p-id="8660"></path><path d="M106.1 754.7c-13.1 0-24.7-9.6-26.7-23l-19.6-128c-1.1-7.1 0.7-14.3 4.9-20.1 4.3-5.8 10.6-9.6 17.7-10.7l69.5-10.7c7.1-1.1 14.3 0.7 20.1 4.9s9.6 10.6 10.7 17.7l19.6 128c2.3 14.8-7.9 28.6-22.7 30.9l-69.5 10.7c-1.2 0.2-2.6 0.3-4 0.3z m50-187.1c-1.1 0-2.2 0.1-3.3 0.3l-69.5 10.7c-5.7 0.9-10.7 3.9-14 8.5s-4.8 10.3-3.9 15.9L85 731c1.8 11.7 12.8 19.7 24.5 18l69.5-10.7 0.4 2.8-0.4-2.8c11.7-1.8 19.7-12.8 18-24.5l-19.6-128c-0.9-5.7-3.9-10.7-8.5-14-3.9-2.8-8.3-4.2-12.8-4.2z" fill="#9E4356" p-id="8661"></path><path d="M67.9 620l64.7 24.8 46.9-44.9" fill="#D55542" p-id="8662"></path><path d="M132.6 647.7c-0.3 0-0.7-0.1-1-0.2l-64.7-24.8c-1.4-0.6-2.2-2.2-1.6-3.6 0.6-1.4 2.2-2.2 3.6-1.6l63.1 24.2 45.6-43.7c1.1-1.1 2.9-1 4 0.1s1 2.9-0.1 4L134.6 647c-0.6 0.4-1.3 0.7-2 0.7z" fill="#9E4356" p-id="8663"></path><path d="M129.1 645.4m-25.7 0a25.7 25.7 0 1 0 51.4 0 25.7 25.7 0 1 0-51.4 0Z" fill="#F5D184" p-id="8664"></path><path d="M129.1 673.6c-13.7 0-25.8-10-27.9-24-2.4-15.4 8.2-29.8 23.6-32.2 7.5-1.1 14.9 0.7 21 5.1 6.1 4.5 10.1 11 11.2 18.5 1.1 7.5-0.7 14.9-5.1 21-4.5 6.1-11 10.1-18.5 11.2-1.4 0.3-2.9 0.4-4.3 0.4z m0.1-51.3c-1.2 0-2.4 0.1-3.5 0.3-12.6 1.9-21.3 13.7-19.3 26.3 1.9 12.6 13.7 21.3 26.3 19.3 6.1-0.9 11.5-4.2 15.1-9.2 3.7-5 5.1-11.1 4.2-17.2-0.9-6.1-4.2-11.5-9.2-15.1-4-2.9-8.7-4.4-13.6-4.4z" fill="#A97234" p-id="8665"></path><path d="M920.4 747.3l-69.7-9.3c-13.3-1.8-22.6-14-20.8-27.3L847 582.5c1.8-13.3 14-22.6 27.3-20.8L944 571c13.3 1.8 22.6 14 20.8 27.3l-17.1 128.3c-1.8 13.2-14 22.5-27.3 20.7z" fill="#D55542" p-id="8666"></path><path d="M923.6 750.4c-1.2 0-2.4-0.1-3.6-0.2l-69.7-9.3c-14.8-2-25.2-15.6-23.2-30.4l17.1-128.3c1-7.2 4.6-13.5 10.4-17.9 5.7-4.4 12.9-6.3 20-5.3l69.7 9.3c7.2 1 13.5 4.6 17.9 10.4 4.4 5.7 6.3 12.9 5.3 20L950.4 727c-1.8 13.5-13.4 23.4-26.8 23.4z m-2.8-5.8c11.7 1.6 22.5-6.7 24.1-18.4L962 597.8c0.8-5.7-0.7-11.3-4.2-15.9s-8.5-7.5-14.2-8.2l-69.7-9.3c-5.7-0.8-11.3 0.7-15.9 4.2s-7.5 8.5-8.2 14.2l-17.1 128.3c-1.6 11.7 6.7 22.5 18.4 24.1l69.7 9.4z" fill="#9E4356" p-id="8667"></path><path d="M847.4 599.9l55.1 42.1 57.7-30" fill="#D55542" p-id="8668"></path><path d="M902.5 644.8c-0.6 0-1.2-0.2-1.7-0.6l-55.1-42c-1.2-0.9-1.5-2.7-0.5-3.9 0.9-1.2 2.7-1.5 3.9-0.5l53.7 40.9 56.1-29.1c1.4-0.7 3.1-0.2 3.8 1.2 0.7 1.4 0.2 3.1-1.2 3.8l-57.7 29.9c-0.4 0.2-0.8 0.3-1.3 0.3z" fill="#9E4356" p-id="8669"></path><path d="M899 641.5m-25.7 0a25.7 25.7 0 1 0 51.4 0 25.7 25.7 0 1 0-51.4 0Z" fill="#F5D184" p-id="8670"></path><path d="M899.1 669.8c-1.3 0-2.5-0.1-3.8-0.3-7.5-1-14.1-4.8-18.7-10.8s-6.6-13.4-5.6-20.9c1-7.5 4.8-14.1 10.8-18.7 6-4.6 13.4-6.6 20.9-5.6 7.5 1 14.1 4.8 18.7 10.8s6.6 13.4 5.6 20.9c-1 7.5-4.8 14.1-10.8 18.7-5 3.9-10.9 5.9-17.1 5.9z m-0.1-51.4c-5 0-9.9 1.6-14 4.8-4.9 3.7-8.1 9.2-8.9 15.3-1.7 12.6 7.2 24.3 19.8 26 12.6 1.7 24.3-7.2 26-19.8 0.8-6.1-0.8-12.2-4.5-17.1-3.7-4.9-9.2-8.1-15.3-8.9-1-0.2-2.1-0.3-3.1-0.3z" fill="#A97234" p-id="8671"></path><path d="M820.3 535.3c0.4 2.3 0.5 4.7 0.5 7.1 0 27.1-20.2 49.4-46.4 52.9-74.7 94.6-270.4 86.2-270.4 86.2-182.9 4.4-250-51.3-274-86.2-26.7-2.9-47.4-25.5-47.4-53 0-2.5 0.1-4.9 0.5-7.3-35.7-3-63.7-32.9-63.7-69.5 0-26 14.3-48.7 35.3-60.7-14.3-12.7-23.2-31.3-23.2-52 0-38 30.3-69 68.1-69.9 2.3-7.3 8.8-25.4 21.8-46.7-21.8-8.2-39.7-24-49.3-45.5-20.6-46.9 6.1-104.1 59.7-127.6s113.8-4.7 134.5 42.3c4.3 9.7 6.4 19.9 6.8 30.1 21.3-4.7 140-27.9 259.8-3.3 0.6-9.2 2.8-18.2 6.7-26.9 20.6-46.9 80.9-65.8 134.3-42.3 53.6 23.6 80.3 80.7 59.7 127.6-8.6 19.6-24.1 34.2-43 42.9 8.8 14.4 16.3 30.8 21.6 49.4 36.2 2.6 64.8 32.9 64.8 69.8 0 20.6-9 39.1-23.2 52 21.1 12 35.3 34.7 35.3 60.7 0 38.3-30.7 69.4-68.8 69.9z" fill="#EDCF99" p-id="8672"></path><path d="M483.8 686c-72.1 0-131.9-9.7-178.1-28.9-43.1-17.9-66.2-41-78.2-57.7-28.2-4-49.3-28.2-49.3-57 0-1.3 0-2.4 0.1-3.5-16.7-2.4-32.1-10.5-43.7-23-12.6-13.7-19.6-31.5-19.6-50.2 0-24.7 12.4-47.7 32.7-61.4-13.1-13.7-20.6-32.1-20.6-51.2 0-19.5 7.5-37.9 21.1-51.8 12.9-13.2 29.9-21 48.2-22.2 2.4-7.1 8.2-22.3 18.7-40.4-21.3-9.3-37.9-25.4-47-45.9-21.5-49.1 6.3-108.8 61.8-133.3C285.6 35 348.4 55 370 103.9c3.7 8.3 6 17.3 6.8 26.7 30.9-6.3 139.6-25.2 252.1-3.2 1-8.2 3.2-16 6.6-23.5 9.5-21.6 27.5-38.5 50.9-47.6 27.6-10.8 60.1-9.6 89.1 3.2 26.9 11.8 48.1 32.1 59.8 57.2 11.8 25.2 12.5 52.3 2 76.1-8.1 18.5-22.2 33.3-40.9 43 7.9 13.6 14.2 28.2 18.8 43.7 37.1 4.2 65.8 36.1 65.8 73.7 0 19.1-7.4 37.4-20.6 51.2 20.3 13.7 32.7 36.7 32.7 61.4 0 19.6-7.6 38.1-21.3 52-12.6 12.8-29.2 20.5-47 21.8 0 0.9 0.1 1.9 0.1 3 0 28.2-20.7 52.4-48.4 56.8-17.4 21.6-42.4 39.5-74.3 53.4-25.8 11.2-56.3 19.8-90.5 25.5-56.4 9.4-104.9 7.8-108 7.7-6.6-0.1-13.3 0-19.9 0zM279.2 57.3c-15 0-30.6 3.1-45.7 9.8-51.3 22.6-77.1 77.3-57.5 122 8.8 19.8 25.5 35.2 46.9 43.2l4.8 1.8-2.7 4.4c-13.6 22.3-19.8 40.6-21.4 45.7l-0.9 2.9-3.1 0.1c-17.2 0.4-33.3 7.4-45.3 19.7-12 12.3-18.7 28.6-18.7 45.9 0 18.6 7.9 36.4 21.8 48.8l4.4 4-5.2 2.9c-20.5 11.6-33.2 33.5-33.2 57 0 16.5 6.2 32.3 17.3 44.4 11.1 12 26.2 19.4 42.5 20.8l4.6 0.4-0.7 4.5c-0.3 2-0.5 4.1-0.5 6.6 0 25.1 18.7 46 43.6 48.7l1.9 0.2 1.1 1.6c23 33.4 88.6 88.7 270.3 84.3h0.2c0.5 0 49.3 2 106.5-7.6 52.4-8.8 122.7-29.2 160.4-77.1l1.1-1.4 1.7-0.2c24.3-3.2 42.7-24.1 42.7-48.6 0-2.5-0.1-4.6-0.4-6.4l-0.8-4.9 5-0.1c17.3-0.2 33.5-7.1 45.7-19.5 12.2-12.3 18.9-28.7 18.9-46 0-23.5-12.7-45.3-33.2-57l-5.1-2.9 4.4-4c13.9-12.5 21.8-30.3 21.8-48.8 0-34.2-26.7-63-60.9-65.5l-3-0.2-0.8-2.9c-4.9-17.3-12-33.6-21.1-48.4l-2.5-4.1 4.4-2c18.9-8.7 33-22.8 40.9-40.7 9.5-21.5 8.8-46.1-1.9-69-10.8-23.2-30.6-42-55.5-53-26.9-11.9-57-13-82.5-3-21.2 8.3-37.6 23.6-46.2 43.1-3.6 8-5.7 16.6-6.3 25.4l-0.3 4.9-4.8-1c-122-25-244.5 0.3-258.1 3.3l-5 1.1-0.2-5.1c-0.4-10.1-2.5-19.7-6.5-28.6-13.7-31.2-46.7-49.5-82.9-49.5z" fill="#A94E23" p-id="8673"></path><path d="M677.6 481.8a59 34.9 0 1 0 118 0 59 34.9 0 1 0-118 0Z" fill="#F0A322" p-id="8674"></path><path d="M222.5 481.8a59 34.9 0 1 0 118 0 59 34.9 0 1 0-118 0Z" fill="#F0A322" p-id="8675"></path><path d="M611.7 429.3a47.3 62.4 0 1 0 94.6 0 47.3 62.4 0 1 0-94.6 0Z" fill="#833B2A" p-id="8676"></path><path d="M310.3 429.3a47.3 62.4 0 1 0 94.6 0 47.3 62.4 0 1 0-94.6 0Z" fill="#833B2A" p-id="8677"></path><path d="M481.7 455.1a28.6 13.4 0 1 0 57.2 0 28.6 13.4 0 1 0-57.2 0Z" fill="#833B2A" p-id="8678"></path><path d="M454.7 523c-12.6 0-22.3-2.4-23-2.6-3.2-0.8-5.1-4.1-4.3-7.2 0.8-3.2 4.1-5.1 7.2-4.3 0.3 0.1 32.4 7.9 52.8-6.6 9.9-7.1 15.6-18.6 17-34.3 0.3-3.1 2.8-5.5 5.9-5.5h0.3c3.1 0 5.7 2.4 5.9 5.5 1.3 15.7 7 27.2 17 34.3 20.4 14.5 52.5 6.7 52.8 6.6 3.2-0.8 6.4 1.1 7.2 4.3 0.8 3.2-1.1 6.4-4.3 7.2-1.5 0.4-37.7 9.3-62.6-8.4-7-5-12.5-11.6-16.2-19.7-3.7 8.1-9.1 14.7-16.2 19.7-12.2 8.7-27.3 11-39.5 11z" fill="#833B2A" p-id="8679"></path><path d="M657.8 144.8s76.3 27.4 101.8 68.6c15.1 8.4 69.8-65.7 3.2-102.8-3.7-4.6-77.3-40.2-105 34.2z" fill="#F0A322" p-id="8680"></path><path d="M345.1 144.8s-76.3 27.4-101.8 68.6c-15.1 8.4-69.8-65.7-3.2-102.8 3.8-4.6 77.3-40.2 105 34.2z" fill="#F0A322" p-id="8681"></path></svg>