<?xml version="1.0" standalone="no"?><!DOCTYPE svg PUBLIC "-//W3C//DTD SVG 1.1//EN" "http://www.w3.org/Graphics/SVG/1.1/DTD/svg11.dtd"><svg t="1670219900550" class="icon" viewBox="0 0 1024 1024" version="1.1" xmlns="http://www.w3.org/2000/svg" p-id="3657" xmlns:xlink="http://www.w3.org/1999/xlink" width="200" height="200"><path d="M661 273.8c15.7-38.9 53.9-66.3 98.4-66.3 58.6 0 106.1 47.5 106.1 106.1 0 49.6-34.1 91.3-80.1 102.9" fill="#9B691F" p-id="3658"></path><path d="M786.6 421.4l-2.4-9.7c45-11.3 76.4-51.6 76.4-98 0-55.7-45.4-101.1-101.1-101.1-41.4 0-78.2 24.8-93.7 63.2l-9.3-3.8c17.1-42.2 57.5-69.4 103-69.4 61.3 0 111.1 49.8 111.1 111.1-0.1 50.9-34.6 95.2-84 107.7z" fill="" p-id="3659"></path><path d="M686.2 290.5c12.7-17.2 33.1-28.3 56.1-28.3 38.5 0 69.7 31.2 69.7 69.7 0 26.8-15.1 50.1-37.4 61.8" fill="#FFD4DC" p-id="3660"></path><path d="M356 273.8c-15.7-38.9-53.9-66.3-98.4-66.3-58.6 0-106.1 47.5-106.1 106.1 0 49.6 34.1 91.3 80.1 102.9" fill="#9B691F" p-id="3661"></path><path d="M230.4 421.4c-49.4-12.4-83.9-56.7-83.9-107.7 0-61.3 49.8-111.1 111.1-111.1 45.5 0 85.9 27.3 103 69.4l-9.3 3.8c-15.5-38.4-52.3-63.2-93.7-63.2-55.7 0-101.1 45.4-101.1 101.1 0 46.4 31.4 86.7 76.4 98l-2.5 9.7z" fill="" p-id="3662"></path><path d="M330.8 290.5c-12.7-17.2-33.1-28.3-56.1-28.3-38.5 0-69.7 31.2-69.7 69.7 0 26.8 15.1 50.1 37.4 61.8" fill="#FFD4DC" p-id="3663"></path><path d="M653.3 315.8v-2.2c0-14.1 2.7-27.5 7.7-39.8" fill="#9B691F" p-id="3664"></path><path d="M651.8 315.9v-2.2c0-14 2.6-27.5 7.8-40.4l2.8 1.1c-5 12.5-7.6 25.7-7.6 39.2v2.2l-3 0.1z" fill="" p-id="3665"></path><path d="M672.6 333.4V332c0-15.5 5.1-29.8 13.6-41.4" fill="#FFD4DC" p-id="3666"></path><path d="M508.5 532.2m-300 0a300 300 0 1 0 600 0 300 300 0 1 0-600 0Z" fill="#9B691F" p-id="3667"></path><path d="M508.5 837.2c-81.5 0-158.1-31.7-215.7-89.3s-89.3-134.2-89.3-215.7 31.7-158.1 89.3-215.7 134.2-89.3 215.7-89.3 158.1 31.7 215.7 89.3 89.3 134.2 89.3 215.7-31.7 158.1-89.3 215.7-134.3 89.3-215.7 89.3z m0-600c-162.7 0-295 132.3-295 295s132.3 295 295 295 295-132.3 295-295-132.4-295-295-295z" fill="" p-id="3668"></path><path d="M412.8 570.2a95.7 68.5 0 1 0 191.4 0 95.7 68.5 0 1 0-191.4 0Z" fill="#FFFFFF" p-id="3669"></path><path d="M508.5 643.7c-26.6 0-51.7-7.5-70.6-21-19.4-13.9-30.1-32.5-30.1-52.5s10.7-38.6 30.1-52.5c18.9-13.5 44-21 70.6-21 26.6 0 51.7 7.5 70.6 21 19.4 13.9 30.1 32.5 30.1 52.5 0 19.9-10.7 38.6-30.1 52.5-18.9 13.5-44 21-70.6 21z m0-136.9c-50 0-90.7 28.5-90.7 63.5s40.7 63.5 90.7 63.5 90.7-28.5 90.7-63.5-40.7-63.5-90.7-63.5z" fill="" p-id="3670"></path><path d="M497.2 531.8l7.4 6.4c1.8 1.5 6.1 1.5 7.9 0l7.4-6.4c1.8-1.5-0.4-3.4-3.9-3.4h-14.7c-3.7 0-5.9 1.9-4.1 3.4z" fill="" p-id="3671"></path><path d="M508.5 541.8c-2.1 0-4.2-0.6-5.6-1.8l-7.4-6.4c-1.4-1.2-1.8-2.8-1.2-4.3 0.8-2.1 3.5-3.5 6.8-3.5h14.7c3.4 0 6 1.4 6.8 3.5 0.6 1.5 0.1 3.1-1.2 4.3L514 540c-1.3 1.3-3.4 1.8-5.5 1.8zM500 531l6.2 5.3c0.8 0.7 3.8 0.7 4.6 0l6.2-5.3c-0.3-0.1-0.7-0.1-1.1-0.1h-14.7c-0.5 0-0.9 0-1.2 0.1z m-1.2-1.1l-1.6 1.9 1.6-1.9z" fill="" p-id="3672"></path><path d="M467.4 576.8c-7.4 0-14.2-1.3-19.2-3.9-8.7-4.4-11.2-12.3-6.8-20.9l4.5 2.3c-3.2 6.2-1.6 11 4.6 14.2 13.7 7 44.4 3.3 52.8-13.1 1-2 3-3.2 5.3-3.3 2.2-0.1 4.4 0.9 5.3 2.4 8.6 14.4 36.7 18.6 50.8 11.2 6.4-3.4 8-8.3 5-14.7l4.5-2.1c4.2 8.9 1.5 16.6-7.2 21.3-7.6 4-19.2 5.2-30.5 3.1-12.3-2.3-22.1-8.1-26.8-16-0.2-0.1-0.8-0.3-1.3-0.1-0.4 0.1-0.6 0.3-0.7 0.5-6.7 13.1-24.7 19.1-40.3 19.1z" fill="" p-id="3673"></path><path d="M506 533.9h5v21h-5z" fill="" p-id="3674"></path><path d="M256 587.9a57.5 21.3 0 1 0 115 0 57.5 21.3 0 1 0-115 0Z" fill="#FFD4DC" p-id="3675"></path><path d="M644.4 586.5a57.5 21.3 0 1 0 115 0 57.5 21.3 0 1 0-115 0Z" fill="#FFD4DC" p-id="3676"></path><path d="M357.5 532.2m-55 0a55 55 0 1 0 110 0 55 55 0 1 0-110 0Z" fill="" p-id="3677"></path><path d="M357.5 588.7c-31.2 0-56.5-25.3-56.5-56.5s25.3-56.5 56.5-56.5S414 501 414 532.2s-25.4 56.5-56.5 56.5z m0-110c-29.5 0-53.5 24-53.5 53.5s24 53.5 53.5 53.5 53.5-24 53.5-53.5-24-53.5-53.5-53.5z" fill="" p-id="3678"></path><path d="M333.7 517m-15.2 0a15.2 15.2 0 1 0 30.4 0 15.2 15.2 0 1 0-30.4 0Z" fill="#FFFFFF" p-id="3679"></path><path d="M396.6 549.7c2.4 4.2-1.2 14.8-13.9 22.3s-26.4 6.4-28.9 2.3c-2.4-4.2 9.7-1.6 22.5-9 12.8-7.5 17.9-19.7 20.3-15.6z" fill="#565656" p-id="3680"></path><path d="M659.2 532.2m-55 0a55 55 0 1 0 110 0 55 55 0 1 0-110 0Z" fill="" p-id="3681"></path><path d="M659.2 588.7c-31.2 0-56.5-25.3-56.5-56.5s25.3-56.5 56.5-56.5 56.5 25.3 56.5 56.5-25.3 56.5-56.5 56.5z m0-110c-29.5 0-53.5 24-53.5 53.5s24 53.5 53.5 53.5 53.5-24 53.5-53.5-24-53.5-53.5-53.5z" fill="" p-id="3682"></path><path d="M635.5 517m-15.2 0a15.2 15.2 0 1 0 30.4 0 15.2 15.2 0 1 0-30.4 0Z" fill="#FFFFFF" p-id="3683"></path><path d="M698.4 549.7c2.4 4.2-1.2 14.8-13.9 22.3s-26.4 6.4-28.9 2.3c-2.4-4.2 9.7-1.6 22.5-9s17.9-19.7 20.3-15.6z" fill="#565656" p-id="3684"></path></svg>